# Blender v2.64 (sub 0) OBJ File: 'imp.blend'
# www.blender.org
o Cube.025_Cube.028
v 0.066373 0.210506 -0.763701
v 0.066373 0.357639 -0.763668
v -0.081265 0.357639 -0.763668
v -0.081265 0.210506 -0.763701
v 0.066373 0.210518 -0.818568
v 0.066373 0.357651 -0.818535
v -0.081265 0.357651 -0.818535
v -0.081265 0.210518 -0.818568
v 0.100792 0.180825 -0.876273
v 0.100792 0.396560 -0.876225
v -0.115684 0.396560 -0.876225
v -0.115684 0.180825 -0.876273
v 0.100792 0.180833 -0.910913
v 0.100792 0.396567 -0.910866
v -0.115684 0.396567 -0.910866
v -0.115684 0.180833 -0.910913
v 0.070191 0.196407 -0.377209
v 0.070191 0.351149 -0.377175
v -0.085083 0.351149 -0.377175
v -0.085083 0.196407 -0.377209
v 0.070191 0.196419 -0.430748
v 0.070191 0.351161 -0.430714
v -0.085083 0.351161 -0.430714
v -0.085083 0.196419 -0.430748
v 0.057858 0.224337 -0.850620
v 0.057858 0.354498 -0.850591
v -0.072750 0.354498 -0.850591
v -0.072750 0.224337 -0.850620
v 0.057858 0.224344 -0.881350
v 0.057858 0.354505 -0.881321
v -0.072750 0.354505 -0.881321
v -0.072750 0.224344 -0.881350
v 0.046463 0.235399 -0.810583
v 0.046463 0.342847 -0.810559
v -0.061355 0.342847 -0.810559
v -0.061355 0.235399 -0.810583
v 0.046463 0.235408 -0.850651
v 0.046463 0.342856 -0.850627
v -0.061355 0.342856 -0.850627
v -0.061355 0.235408 -0.850651
v 0.109943 0.158756 -0.686112
v 0.109943 0.392730 -0.686060
v -0.124835 0.392730 -0.686060
v -0.124835 0.158756 -0.686112
v 0.109943 0.158775 -0.773364
v 0.109943 0.392750 -0.773312
v -0.124835 0.392750 -0.773312
v -0.124835 0.158775 -0.773364
v 0.123155 0.144062 -0.399634
v 0.123155 0.404370 -0.399576
v -0.138048 0.404370 -0.399576
v -0.138047 0.144062 -0.399634
v 0.123155 0.144077 -0.468107
v 0.123155 0.404385 -0.468049
v -0.138048 0.404385 -0.468049
v -0.138047 0.144077 -0.468107
v 0.154305 0.117871 -0.448726
v 0.154305 0.441372 -0.448654
v -0.169197 0.441372 -0.448654
v -0.169197 0.117871 -0.448726
v 0.154305 0.117932 -0.726716
v 0.154305 0.441434 -0.726644
v -0.169197 0.441434 -0.726644
v -0.169197 0.117932 -0.726716
v 0.145946 -0.050112 -0.412397
v 0.153571 0.069720 -0.409398
v 0.211490 0.061062 -0.210694
v 0.203865 -0.058769 -0.213693
v 0.028510 -0.043503 -0.377878
v 0.036135 0.076329 -0.374880
v 0.094054 0.067672 -0.176176
v 0.086429 -0.052160 -0.179174
v 0.214169 -0.027654 -0.183637
v 0.184122 0.056913 -0.238805
v 0.146643 0.134720 -0.099122
v 0.176690 0.050153 -0.043954
v 0.114084 -0.066586 -0.188805
v 0.084037 0.017981 -0.243973
v 0.046558 0.095788 -0.104290
v 0.076605 0.011221 -0.049122
v 0.161000 0.121951 -0.070445
v 0.164006 0.123639 -0.002062
v 0.198153 -0.087494 0.001649
v 0.195147 -0.089182 -0.066735
v 0.054970 0.104892 -0.065363
v 0.057976 0.106580 0.003020
v 0.092123 -0.104553 0.006731
v 0.089117 -0.106241 -0.061653
v -0.043848 0.107095 -0.063109
v -0.046732 0.106212 0.005295
v -0.070745 -0.106311 0.001538
v -0.067861 -0.105428 -0.066866
v -0.150587 0.119233 -0.067451
v -0.153470 0.118349 0.000952
v -0.177483 -0.094174 -0.002805
v -0.174600 -0.093291 -0.071209
v -0.084069 -0.056145 -0.199218
v -0.074857 0.037902 -0.245784
v -0.040799 0.106495 -0.100508
v -0.050012 0.012449 -0.053943
v -0.188825 -0.037972 -0.183241
v -0.179613 0.056074 -0.229806
v -0.145555 0.124668 -0.084531
v -0.154768 0.030622 -0.037965
v -0.008135 -0.047589 -0.385353
v -0.009990 0.072412 -0.380542
v -0.075610 0.063529 -0.184257
v -0.073756 -0.056472 -0.189068
v -0.124390 -0.047827 -0.424229
v -0.126244 0.072174 -0.419418
v -0.191865 0.063291 -0.223133
v -0.190010 -0.056710 -0.227943
v 0.124469 -0.073611 -0.319569
v 0.124469 0.098670 -0.338476
v -0.124469 0.098670 -0.338476
v -0.124469 -0.073611 -0.319569
v 0.124469 -0.083500 -0.409674
v 0.124469 0.088782 -0.428580
v -0.124469 0.088782 -0.428580
v -0.124469 -0.083500 -0.409674
v 0.113134 0.071974 -0.663556
v 0.109053 -0.010811 -0.648519
v 0.211926 0.018058 -0.461670
v 0.216007 0.100843 -0.476708
v 0.180463 0.062196 -0.699115
v 0.176382 -0.020589 -0.684077
v 0.279255 0.008280 -0.497228
v 0.283336 0.091065 -0.512266
v 0.209633 0.096783 -0.501155
v 0.203872 0.013350 -0.491063
v 0.228214 0.030852 -0.332476
v 0.233975 0.114285 -0.342568
v 0.273726 0.091242 -0.510381
v 0.267965 0.007809 -0.500289
v 0.292307 0.025310 -0.341702
v 0.298068 0.108744 -0.351794
v 0.229086 0.118999 -0.350880
v 0.222625 0.027918 -0.342441
v 0.222357 0.035022 -0.265983
v 0.228818 0.126103 -0.274422
v 0.319451 0.112673 -0.349976
v 0.312990 0.021592 -0.341537
v 0.312722 0.028695 -0.265078
v 0.319183 0.119777 -0.273518
v -0.229456 0.014012 -0.338542
v -0.212970 0.103822 -0.346979
v -0.212701 0.110955 -0.270523
v -0.229186 0.021145 -0.262086
v -0.318570 0.030257 -0.339743
v -0.302085 0.120067 -0.348180
v -0.301816 0.127200 -0.271724
v -0.318301 0.037390 -0.263287
v -0.209224 0.005866 -0.490128
v -0.194255 0.088587 -0.495538
v -0.218745 0.103406 -0.336701
v -0.233714 0.020685 -0.331291
v -0.272415 0.016598 -0.500873
v -0.257446 0.099319 -0.506282
v -0.281936 0.114138 -0.347445
v -0.296905 0.031417 -0.342035
v -0.112253 -0.010423 -0.653325
v -0.098974 0.072761 -0.653772
v -0.202475 0.090292 -0.465865
v -0.215753 0.007108 -0.465418
v -0.178465 -0.000055 -0.690763
v -0.165187 0.083129 -0.691210
v -0.268687 0.100660 -0.503303
v -0.281966 0.017476 -0.502856
v -0.149810 -0.049645 -0.752536
v -0.238268 0.059375 -0.876207
v -0.229446 0.001895 -0.933188
v -0.140987 -0.107125 -0.809516
v -0.112423 -0.032436 -0.764107
v -0.200882 0.076584 -0.887778
v -0.192059 0.019104 -0.944759
v -0.103601 -0.089916 -0.821087
v 0.106015 -0.039952 -0.772124
v 0.188777 0.084879 -0.885234
v 0.197600 0.027399 -0.942214
v 0.114838 -0.097431 -0.829105
v 0.143970 -0.050317 -0.755792
v 0.226732 0.074514 -0.868901
v 0.235555 0.017034 -0.925882
v 0.152793 -0.107796 -0.812772
v 0.086388 -0.135959 -0.628371
v 0.086388 0.123502 -0.744836
v -0.086388 0.123502 -0.744836
v -0.086388 -0.135959 -0.628371
v 0.086388 -0.192405 -0.754122
v 0.086388 0.067056 -0.870587
v -0.086388 0.067056 -0.870587
v -0.086388 -0.192405 -0.754122
v 0.142413 -0.113842 -0.754464
v 0.142413 0.160375 -0.774085
v -0.142413 0.160375 -0.774085
v -0.142413 -0.113842 -0.754464
v 0.142413 -0.128944 -0.965523
v 0.142413 0.145273 -0.985144
v -0.142413 0.145273 -0.985144
v -0.142413 -0.128944 -0.965523
v 0.148205 -0.042043 -0.616095
v 0.148205 0.096658 -0.548988
v -0.148205 0.096658 -0.548988
v -0.148205 -0.042043 -0.616095
v 0.148205 0.003999 -0.711259
v 0.148205 0.142700 -0.644152
v -0.148205 0.142700 -0.644152
v -0.148205 0.003999 -0.711259
v 0.123167 -0.092170 -0.413166
v 0.123167 0.108213 -0.375376
v -0.123167 0.108213 -0.375376
v -0.123167 -0.092170 -0.413166
v 0.123167 -0.053232 -0.619639
v 0.123167 0.147151 -0.581850
v -0.123167 0.147151 -0.581850
v -0.123167 -0.053232 -0.619639
v 0.083132 -0.016751 -0.640301
v 0.083132 0.112233 -0.639870
v -0.083132 0.112233 -0.639870
v -0.083132 -0.016751 -0.640301
v 0.083132 -0.016395 -0.802776
v 0.083132 0.112589 -0.802344
v -0.083132 0.112589 -0.802344
v -0.083132 -0.016395 -0.802776
vt 1.000000 1.000000
vt 0.000000 1.000000
vt 0.000000 0.000000
vt 1.000000 0.000000
vn 1.000000 0.000000 0.000000
vn -0.000000 1.000000 0.000223
vn -1.000000 -0.000000 -0.000000
vn 0.000000 -1.000000 -0.000222
vn 0.000000 -0.000222 1.000000
vn -0.000000 0.000222 -1.000000
vn -0.000000 1.000000 0.000221
vn -0.000000 1.000000 0.000222
vn -0.000000 0.000221 -1.000000
vn -0.000000 1.000000 0.000224
vn 0.000000 -0.000223 1.000000
vn -0.000000 0.000223 -1.000000
vn -0.279594 0.041791 -0.959208
vn 0.063486 0.997670 0.024962
vn 0.279594 -0.041791 0.959208
vn -0.063486 -0.997671 -0.024962
vn 0.958017 -0.053917 -0.281596
vn -0.958017 0.053917 0.281596
vn 0.228216 -0.473781 -0.850558
vn -0.285221 0.802751 -0.523680
vn -0.228216 0.473781 0.850558
vn 0.285221 -0.802751 0.523680
vn 0.930896 0.362109 0.048068
vn -0.930896 -0.362109 -0.048068
vn -0.159633 0.987024 -0.017347
vn 0.043901 0.024653 0.998732
vn 0.159633 -0.987024 0.017347
vn -0.043901 -0.024653 -0.998732
vn 0.986200 0.158669 -0.047267
vn -0.986200 -0.158669 0.047267
vn 0.112260 0.993524 0.017566
vn -0.042116 -0.012905 0.999029
vn -0.112259 -0.993524 -0.017566
vn 0.042116 0.012905 -0.999029
vn 0.992786 -0.112890 0.040394
vn -0.992786 0.112890 -0.040394
vn -0.207383 -0.417682 -0.884610
vn 0.087450 0.892733 -0.442019
vn 0.207383 0.417682 0.884610
vn -0.087450 -0.892733 0.442019
vn 0.974343 -0.169026 -0.148611
vn -0.974343 0.169026 0.148611
vn 0.316770 0.042880 -0.947533
vn -0.015440 0.999078 0.040051
vn -0.316770 -0.042881 0.947533
vn 0.015440 -0.999078 -0.040051
vn 0.948377 0.001943 0.317140
vn -0.948377 -0.001943 -0.317140
vn -0.000000 0.994032 -0.109089
vn 0.000000 -0.994032 0.109089
vn -0.000000 0.109090 0.994032
vn 0.000000 -0.109089 -0.994032
vn -0.477941 -0.134124 -0.868091
vn -0.048445 -0.982745 0.178510
vn 0.477941 0.134124 0.868092
vn 0.048445 0.982745 -0.178510
vn -0.877055 0.127372 0.463197
vn 0.877055 -0.127372 -0.463197
vn -0.150819 -0.108440 -0.982596
vn -0.068391 -0.990439 0.119803
vn 0.150818 0.108440 0.982596
vn 0.068390 0.990439 -0.119802
vn -0.986193 0.085268 0.141960
vn 0.986193 -0.085269 -0.141960
vn 0.003489 -0.092508 -0.995706
vn -0.070458 -0.993260 0.092034
vn -0.003490 0.092508 0.995706
vn 0.070458 0.993260 -0.092034
vn -0.997509 0.069835 -0.009984
vn 0.997509 -0.069835 0.009984
vn -0.003511 -0.092892 -0.995670
vn 0.179777 0.979395 -0.092008
vn 0.003511 0.092893 0.995670
vn -0.179777 -0.979395 0.092008
vn 0.983701 -0.179321 0.013262
vn -0.983701 0.179321 -0.013262
vn 0.151740 -0.091818 -0.984147
vn 0.177696 0.981988 -0.064218
vn -0.151739 0.091818 0.984147
vn -0.177696 -0.981988 0.064218
vn 0.972316 -0.165134 0.165322
vn -0.972316 0.165134 -0.165322
vn 0.480861 -0.081449 -0.873006
vn 0.157628 0.987484 -0.005306
vn -0.480860 0.081449 0.873006
vn -0.157628 -0.987484 0.005306
vn 0.862512 -0.135059 0.487681
vn -0.862512 0.135059 -0.487681
vn -0.108367 0.706000 0.699871
vn -0.472798 0.582695 -0.661005
vn 0.108366 -0.706001 -0.699871
vn 0.472797 -0.582696 0.661006
vn -0.874482 -0.402528 0.270652
vn 0.874482 0.402528 -0.270652
vn -0.108365 0.706001 0.699871
vn 0.440962 0.665103 -0.602653
vn -0.440961 -0.665104 0.602652
vn -0.890960 0.243310 -0.383394
vn 0.890960 -0.243310 0.383394
vn -0.000000 0.912306 -0.409509
vn 0.000000 -0.912306 0.409509
vn -0.000000 0.409510 0.912306
vn 0.000000 -0.409510 -0.912306
vn -0.000000 0.997450 -0.071370
vn 0.000000 -0.997450 0.071370
vn -0.000000 0.071370 0.997450
vn 0.000000 -0.071370 -0.997450
vn -0.000000 0.900177 0.435525
vn 0.000000 -0.900177 -0.435525
vn 0.000000 -0.435525 0.900176
vn -0.000000 0.435525 -0.900176
vn -0.000000 0.982678 0.185319
vn 0.000000 -0.982678 -0.185319
vn 0.000000 -0.185319 0.982678
vn -0.000000 0.185319 -0.982678
vn -0.000000 0.999998 0.002190
vn 0.000000 -0.999998 -0.002190
vn 0.000000 -0.003346 0.999994
vn -0.000000 0.003347 -0.999994
s off
f 2/1/1 1/2/1 5/3/1
f 2/1/1 5/3/1 6/4/1
f 6/3/2 7/4/2 3/1/2
f 6/3/2 3/1/2 2/2/2
f 7/3/3 8/4/3 4/1/3
f 7/3/3 4/1/3 3/2/3
f 1/1/4 4/2/4 8/3/4
f 1/1/4 8/3/4 5/4/4
f 1/3/5 2/4/5 3/1/5
f 1/3/5 3/1/5 4/2/5
f 8/3/6 7/4/6 6/1/6
f 8/3/6 6/1/6 5/2/6
f 13/3/1 14/4/1 10/1/1
f 13/3/1 10/1/1 9/2/1
f 14/3/7 15/4/7 11/1/7
f 14/3/7 11/1/7 10/2/7
f 15/3/3 16/4/3 12/1/3
f 15/3/3 12/1/3 11/2/3
f 16/3/4 13/4/4 9/1/4
f 16/3/4 9/1/4 12/2/4
f 9/3/5 10/4/5 11/1/5
f 9/3/5 11/1/5 12/2/5
f 16/3/6 15/4/6 14/1/6
f 16/3/6 14/1/6 13/2/6
f 21/3/1 22/4/1 18/1/1
f 21/3/1 18/1/1 17/2/1
f 22/3/8 23/4/8 19/1/8
f 22/3/8 19/1/8 18/2/8
f 23/3/3 24/4/3 20/1/3
f 23/3/3 20/1/3 19/2/3
f 24/3/4 21/4/4 17/1/4
f 24/3/4 17/1/4 20/2/4
f 17/3/5 18/4/5 19/1/5
f 17/3/5 19/1/5 20/2/5
f 24/3/9 23/4/9 22/1/9
f 24/3/9 22/1/9 21/2/9
f 29/3/1 30/4/1 26/1/1
f 29/3/1 26/1/1 25/2/1
f 30/3/10 31/4/10 27/1/10
f 30/3/10 27/1/10 26/2/10
f 31/3/3 32/4/3 28/1/3
f 31/3/3 28/1/3 27/2/3
f 32/3/4 29/4/4 25/1/4
f 32/3/4 25/1/4 28/2/4
f 25/3/11 26/4/11 27/1/11
f 25/3/11 27/1/11 28/2/11
f 32/3/12 31/4/12 30/1/12
f 32/3/12 30/1/12 29/2/12
f 37/3/1 38/4/1 34/1/1
f 37/3/1 34/1/1 33/2/1
f 38/3/2 39/4/2 35/1/2
f 38/3/2 35/1/2 34/2/2
f 39/3/3 40/4/3 36/1/3
f 39/3/3 36/1/3 35/2/3
f 40/3/4 37/4/4 33/1/4
f 40/3/4 33/1/4 36/2/4
f 33/3/5 34/4/5 35/1/5
f 33/3/5 35/1/5 36/2/5
f 40/3/6 39/4/6 38/1/6
f 40/3/6 38/1/6 37/2/6
f 45/3/1 46/4/1 42/1/1
f 45/3/1 42/1/1 41/2/1
f 46/3/8 47/4/8 43/1/8
f 46/3/8 43/1/8 42/2/8
f 47/3/3 48/4/3 44/1/3
f 47/3/3 44/1/3 43/2/3
f 48/3/4 45/4/4 41/1/4
f 48/3/4 41/1/4 44/2/4
f 41/3/5 42/4/5 43/1/5
f 41/3/5 43/1/5 44/2/5
f 48/3/6 47/4/6 46/1/6
f 48/3/6 46/1/6 45/2/6
f 53/3/1 54/4/1 50/1/1
f 53/3/1 50/1/1 49/2/1
f 54/3/8 55/4/8 51/1/8
f 54/3/8 51/1/8 50/2/8
f 55/3/3 56/4/3 52/1/3
f 55/3/3 52/1/3 51/2/3
f 56/3/4 53/4/4 49/1/4
f 56/3/4 49/1/4 52/2/4
f 49/3/5 50/4/5 51/1/5
f 49/3/5 51/1/5 52/2/5
f 56/3/6 55/4/6 54/1/6
f 56/3/6 54/1/6 53/2/6
f 61/3/1 62/4/1 58/1/1
f 61/3/1 58/1/1 57/2/1
f 62/3/8 63/4/8 59/1/8
f 62/3/8 59/1/8 58/2/8
f 63/3/3 64/4/3 60/1/3
f 63/3/3 60/1/3 59/2/3
f 64/3/4 61/4/4 57/1/4
f 64/3/4 57/1/4 60/2/4
f 57/3/5 58/4/5 59/1/5
f 57/3/5 59/1/5 60/2/5
f 64/3/6 63/4/6 62/1/6
f 64/3/6 62/1/6 61/2/6
f 69/3/13 70/4/13 66/1/13
f 69/3/13 66/1/13 65/2/13
f 70/3/14 71/4/14 67/1/14
f 70/3/14 67/1/14 66/2/14
f 71/3/15 72/4/15 68/1/15
f 71/3/15 68/1/15 67/2/15
f 72/3/16 69/4/16 65/1/16
f 72/3/16 65/1/16 68/2/16
f 65/3/17 66/4/17 67/1/17
f 65/3/17 67/1/17 68/2/17
f 72/3/18 71/4/18 70/1/18
f 72/3/18 70/1/18 69/2/18
f 77/3/19 78/4/19 74/1/19
f 77/3/19 74/1/19 73/2/19
f 78/3/20 79/4/20 75/1/20
f 78/3/20 75/1/20 74/2/20
f 79/3/21 80/4/21 76/1/21
f 79/3/21 76/1/21 75/2/21
f 80/3/22 77/4/22 73/1/22
f 80/3/22 73/1/22 76/2/22
f 73/3/23 74/4/23 75/1/23
f 73/3/23 75/1/23 76/2/23
f 80/3/24 79/4/24 78/1/24
f 80/3/24 78/1/24 77/2/24
f 85/3/25 86/4/25 82/1/25
f 85/3/25 82/1/25 81/2/25
f 86/3/26 87/4/26 83/1/26
f 86/3/26 83/1/26 82/2/26
f 87/3/27 88/4/27 84/1/27
f 87/3/27 84/1/27 83/2/27
f 88/3/28 85/4/28 81/1/28
f 88/3/28 81/1/28 84/2/28
f 81/3/29 82/4/29 83/1/29
f 81/3/29 83/1/29 84/2/29
f 88/3/30 87/4/30 86/1/30
f 88/3/30 86/1/30 85/2/30
f 93/3/31 94/4/31 90/1/31
f 93/3/31 90/1/31 89/2/31
f 94/3/32 95/4/32 91/1/32
f 94/3/32 91/1/32 90/2/32
f 95/3/33 96/4/33 92/1/33
f 95/3/33 92/1/33 91/2/33
f 96/3/34 93/4/34 89/1/34
f 96/3/34 89/1/34 92/2/34
f 89/3/35 90/4/35 91/1/35
f 89/3/35 91/1/35 92/2/35
f 96/3/36 95/4/36 94/1/36
f 96/3/36 94/1/36 93/2/36
f 101/3/37 102/4/37 98/1/37
f 101/3/37 98/1/37 97/2/37
f 102/3/38 103/4/38 99/1/38
f 102/3/38 99/1/38 98/2/38
f 103/3/39 104/4/39 100/1/39
f 103/3/39 100/1/39 99/2/39
f 104/3/40 101/4/40 97/1/40
f 104/3/40 97/1/40 100/2/40
f 97/3/41 98/4/41 99/1/41
f 97/3/41 99/1/41 100/2/41
f 104/3/42 103/4/42 102/1/42
f 104/3/42 102/1/42 101/2/42
f 109/3/43 110/4/43 106/1/43
f 109/3/43 106/1/43 105/2/43
f 110/3/44 111/4/44 107/1/44
f 110/3/44 107/1/44 106/2/44
f 111/3/45 112/4/45 108/1/45
f 111/3/45 108/1/45 107/2/45
f 112/3/46 109/4/46 105/1/46
f 112/3/46 105/1/46 108/2/46
f 105/3/47 106/4/47 107/1/47
f 105/3/47 107/1/47 108/2/47
f 112/3/48 111/4/48 110/1/48
f 112/3/48 110/1/48 109/2/48
f 117/3/1 118/4/1 114/1/1
f 117/3/1 114/1/1 113/2/1
f 118/3/49 119/4/49 115/1/49
f 118/3/49 115/1/49 114/2/49
f 119/3/3 120/4/3 116/1/3
f 119/3/3 116/1/3 115/2/3
f 120/3/50 117/4/50 113/1/50
f 120/3/50 113/1/50 116/2/50
f 113/3/51 114/4/51 115/1/51
f 113/3/51 115/1/51 116/2/51
f 120/3/52 119/4/52 118/1/52
f 120/3/52 118/1/52 117/2/52
f 125/3/53 126/4/53 122/1/53
f 125/3/53 122/1/53 121/2/53
f 126/3/54 127/4/54 123/1/54
f 126/3/54 123/1/54 122/2/54
f 127/3/55 128/4/55 124/1/55
f 127/3/55 124/1/55 123/2/55
f 128/3/56 125/4/56 121/1/56
f 128/3/56 121/1/56 124/2/56
f 121/3/57 122/4/57 123/1/57
f 121/3/57 123/1/57 124/2/57
f 128/3/58 127/4/58 126/1/58
f 128/3/58 126/1/58 125/2/58
f 133/3/59 134/4/59 130/1/59
f 133/3/59 130/1/59 129/2/59
f 134/3/60 135/4/60 131/1/60
f 134/3/60 131/1/60 130/2/60
f 135/3/61 136/4/61 132/1/61
f 135/3/61 132/1/61 131/2/61
f 136/3/62 133/4/62 129/1/62
f 136/3/62 129/1/62 132/2/62
f 129/3/63 130/4/63 131/1/63
f 129/3/63 131/1/63 132/2/63
f 136/3/64 135/4/64 134/1/64
f 136/3/64 134/1/64 133/2/64
f 141/3/65 142/4/65 138/1/65
f 141/3/65 138/1/65 137/2/65
f 142/3/66 143/4/66 139/1/66
f 142/3/66 139/1/66 138/2/66
f 143/3/67 144/4/67 140/1/67
f 143/3/67 140/1/67 139/2/67
f 144/3/68 141/4/68 137/1/68
f 144/3/68 137/1/68 140/2/68
f 137/3/69 138/4/69 139/1/69
f 137/3/69 139/1/69 140/2/69
f 144/3/70 143/4/70 142/1/70
f 144/3/70 142/1/70 141/2/70
f 149/3/71 150/4/71 146/1/71
f 149/3/71 146/1/71 145/2/71
f 150/3/72 151/4/72 147/1/72
f 150/3/72 147/1/72 146/2/72
f 151/3/73 152/4/73 148/1/73
f 151/3/73 148/1/73 147/2/73
f 152/3/74 149/4/74 145/1/74
f 152/3/74 145/1/74 148/2/74
f 145/3/75 146/4/75 147/1/75
f 145/3/75 147/1/75 148/2/75
f 152/3/76 151/4/76 150/1/76
f 152/3/76 150/1/76 149/2/76
f 157/3/77 158/4/77 154/1/77
f 157/3/77 154/1/77 153/2/77
f 158/3/78 159/4/78 155/1/78
f 158/3/78 155/1/78 154/2/78
f 159/3/79 160/4/79 156/1/79
f 159/3/79 156/1/79 155/2/79
f 160/3/80 157/4/80 153/1/80
f 160/3/80 153/1/80 156/2/80
f 153/3/81 154/4/81 155/1/81
f 153/3/81 155/1/81 156/2/81
f 160/3/82 159/4/82 158/1/82
f 160/3/82 158/1/82 157/2/82
f 165/3/83 166/4/83 162/1/83
f 165/3/83 162/1/83 161/2/83
f 166/3/84 167/4/84 163/1/84
f 166/3/84 163/1/84 162/2/84
f 167/3/85 168/4/85 164/1/85
f 167/3/85 164/1/85 163/2/85
f 168/3/86 165/4/86 161/1/86
f 168/3/86 161/1/86 164/2/86
f 161/3/87 162/4/87 163/1/87
f 161/3/87 163/1/87 164/2/87
f 168/3/88 167/4/88 166/1/88
f 168/3/88 166/1/88 165/2/88
f 173/3/89 174/4/89 170/1/89
f 173/3/89 170/1/89 169/2/89
f 174/3/90 175/4/90 171/1/90
f 174/3/90 171/1/90 170/2/90
f 175/3/91 176/4/91 172/1/91
f 175/3/91 172/1/91 171/2/91
f 176/3/92 173/4/92 169/1/92
f 176/3/92 169/1/92 172/2/92
f 169/3/93 170/4/93 171/1/93
f 169/3/93 171/1/93 172/2/93
f 176/3/94 175/4/94 174/1/94
f 176/3/94 174/1/94 173/2/94
f 181/3/95 182/4/95 178/1/95
f 181/3/95 178/1/95 177/2/95
f 182/3/96 183/4/96 179/1/96
f 182/3/96 179/1/96 178/2/96
f 183/3/91 184/4/91 180/1/91
f 183/3/91 180/1/91 179/2/91
f 184/3/97 181/4/97 177/1/97
f 184/3/97 177/1/97 180/2/97
f 177/3/98 178/4/98 179/1/98
f 177/3/98 179/1/98 180/2/98
f 184/3/99 183/4/99 182/1/99
f 184/3/99 182/1/99 181/2/99
f 189/3/1 190/4/1 186/1/1
f 189/3/1 186/1/1 185/2/1
f 190/3/100 191/4/100 187/1/100
f 190/3/100 187/1/100 186/2/100
f 191/3/3 192/4/3 188/1/3
f 191/3/3 188/1/3 187/2/3
f 192/3/101 189/4/101 185/1/101
f 192/3/101 185/1/101 188/2/101
f 185/3/102 186/4/102 187/1/102
f 185/3/102 187/1/102 188/2/102
f 192/3/103 191/4/103 190/1/103
f 192/3/103 190/1/103 189/2/103
f 197/3/1 198/4/1 194/1/1
f 197/3/1 194/1/1 193/2/1
f 198/3/104 199/4/104 195/1/104
f 198/3/104 195/1/104 194/2/104
f 199/3/3 200/4/3 196/1/3
f 199/3/3 196/1/3 195/2/3
f 200/3/105 197/4/105 193/1/105
f 200/3/105 193/1/105 196/2/105
f 193/3/106 194/4/106 195/1/106
f 193/3/106 195/1/106 196/2/106
f 200/3/107 199/4/107 198/1/107
f 200/3/107 198/1/107 197/2/107
f 205/3/1 206/4/1 202/1/1
f 205/3/1 202/1/1 201/2/1
f 206/3/108 207/4/108 203/1/108
f 206/3/108 203/1/108 202/2/108
f 207/3/3 208/4/3 204/1/3
f 207/3/3 204/1/3 203/2/3
f 208/3/109 205/4/109 201/1/109
f 208/3/109 201/1/109 204/2/109
f 201/3/110 202/4/110 203/1/110
f 201/3/110 203/1/110 204/2/110
f 208/3/111 207/4/111 206/1/111
f 208/3/111 206/1/111 205/2/111
f 213/3/1 214/4/1 210/1/1
f 213/3/1 210/1/1 209/2/1
f 214/3/112 215/4/112 211/1/112
f 214/3/112 211/1/112 210/2/112
f 215/3/3 216/4/3 212/1/3
f 215/3/3 212/1/3 211/2/3
f 216/3/113 213/4/113 209/1/113
f 216/3/113 209/1/113 212/2/113
f 209/3/114 210/4/114 211/1/114
f 209/3/114 211/1/114 212/2/114
f 216/3/115 215/4/115 214/1/115
f 216/3/115 214/1/115 213/2/115
f 221/3/1 222/4/1 218/1/1
f 221/3/1 218/1/1 217/2/1
f 222/3/116 223/4/116 219/1/116
f 222/3/116 219/1/116 218/2/116
f 223/3/3 224/4/3 220/1/3
f 223/3/3 220/1/3 219/2/3
f 224/3/117 221/4/117 217/1/117
f 224/3/117 217/1/117 220/2/117
f 217/3/118 218/4/118 219/1/118
f 217/3/118 219/1/118 220/2/118
f 224/3/119 223/4/119 222/1/119
f 224/3/119 222/1/119 221/2/119
